#!OML:ASF X:\für Bonn\!DataBase\2005_08_12_Daniel\c3d\Daniel.ASF
:FULLY-SPECIFIED
:DEGREES
154
root 2.96786 16.4888 -2.05274 -545.218 6.4477 -525.372
lowerback 17.5651 -1.28831 9.43844
upperback 3.33062 0.789252 1.77058
thorax -6.18486 0.487851 -3.65198
lowerneck -1.56508 9.64331 1.48756
upperneck -4.85387 13.3651 -14.7221
head -0.065431 7.09937 -4.95034
rclavicle -2.00773e-014 -2.62396e-014
rhumerus -51.1424 8.34646 -92.7196
rradius 82.2318
rwrist 2.57728
rhand -26.3447 32.9956
rfingers 7.12502
rthumb 0.212789 3.01599
lclavicle -2.00773e-014 -2.62396e-014
lhumerus -73.2957 -1.07337 98.3112
lradius 100.5
lwrist 18.2973
lhand -6.15872 -11.2243
lfingers 7.12502
lthumb 19.6798 17.7995
rfemur 5.1956 5.77743 26.2849
rtibia 36.8731
rfoot -22.6963 1.80411
rtoes -23.9471
lfemur -27.4269 10.794 -14.8451
ltibia 101.137
lfoot -8.7592 -8.15838
ltoes -3.29648
155
root 2.99267 16.5759 -2.34326 -545.296 5.9379 -525.585
lowerback 17.3281 -0.943199 9.16392
upperback 3.24121 1.13386 1.63743
thorax -6.10919 0.648132 -3.71365
lowerneck -1.85319 9.4503 1.04202
upperneck -4.37062 13.1284 -14.0462
head 0.0360839 6.93789 -4.60492
rclavicle -2.5842e-015 -7.95139e-015
rhumerus -50.993 9.27121 -93.8686
rradius 83.4546
rwrist 2.28831
rhand -26.3814 33.1072
rfingers 7.12502
rthumb 0.177394 3.12756
lclavicle -2.5842e-015 -7.95139e-015
lhumerus -74.2724 -1.69717 98.5486
lradius 101.074
lwrist 18.5024
lhand -5.81515 -10.8491
lfingers 7.12502
lthumb 20.01 18.1406
rfemur 6.61484 5.85025 26.2928
rtibia 35.8844
rfoot -20.2409 1.31214
rtoes -23.7295
lfemur -28.3455 10.7718 -15.8389
ltibia 99.0018
lfoot -9.52678 -8.39032
ltoes -4.29858
156
root 3.01395 16.6826 -2.6463 -545.325 5.38852 -525.78
lowerback 16.991 -0.58569 8.82649
upperback 3.13987 1.47381 1.52858
thorax -5.99571 0.807993 -3.70762
lowerneck -2.14006 9.25548 0.621277
upperneck -3.83316 12.8897 -13.3356
head 0.156152 6.77213 -4.25525
rclavicle 5.56597e-015 2.70347e-014
rhumerus -51.0293 10.2123 -94.9577
rradius 84.6978
rwrist 2.08752
rhand -26.4173 33.076
rfingers 7.12502
rthumb 0.142723 3.0963
lclavicle 5.56597e-015 2.70347e-014
lhumerus -75.089 -2.34011 98.7951
lradius 101.625
lwrist 18.6985
lhand -5.51409 -10.5691
lfingers 7.12502
lthumb 20.2994 18.3901
rfemur 7.92302 5.94951 26.3276
rtibia 34.7953
rfoot -17.3267 0.67423
rtoes -23.4451
lfemur -29.1253 10.6623 -16.7505
ltibia 96.5625
lfoot -10.095 -8.70186
ltoes -5.08922
157
root 3.0283 16.813 -2.96359 -545.349 4.8107 -525.973
lowerback 16.614 -0.242871 8.4603
upperback 3.03805 1.7855 1.40283
thorax -5.86634 0.954884 -3.6928
lowerneck -2.42015 9.06977 0.420357
upperneck -3.28297 12.6593 -12.7227
head 0.304501 6.60896 -3.98224
rclavicle -1.19271e-015 -1.74931e-014
rhumerus -51.2167 11.1728 -96.0047
rradius 86.0088
rwrist 2.10646
rhand -26.4257 32.9183
rfingers 7.12502
rthumb 0.134551 2.93857
lclavicle -1.19271e-015 -1.74931e-014
lhumerus -75.8422 -2.96097 98.9853
lradius 102.221
lwrist 18.8422
lhand -5.35552 -10.5178
lfingers 7.12502
lthumb 20.4518 18.4251
rfemur 9.16959 5.97298 26.3158
rtibia 33.5999
rfoot -13.9634 -0.0119907
rtoes -23.2568
lfemur -29.6124 10.4943 -17.606
ltibia 93.7338
lfoot -10.4051 -8.98119
ltoes -5.51163
158
root 3.04234 16.9422 -3.28581 -545.361 4.15667 -526.129
lowerback 16.172 0.0777075 8.07363
upperback 2.94687 2.0629 1.28759
thorax -5.69701 1.08833 -3.64235
lowerneck -2.7373 8.89016 0.354741
upperneck -2.66498 12.4379 -12.1533
head 0.495446 6.44618 -3.74702
rclavicle -2.127e-014 -1.11319e-014
rhumerus -51.4086 12.1661 -96.997
rradius 87.2042
rwrist 2.31188
rhand -26.4694 32.721
rfingers 7.12502
rthumb 0.0923954 2.74127
lclavicle -2.127e-014 -1.11319e-014
lhumerus -76.4034 -3.58309 99.0918
lradius 102.668
lwrist 19.0127
lhand -5.14822 -10.7389
lfingers 7.12502
lthumb 20.651 18.1825
rfemur 10.3793 5.91763 26.3269
rtibia 32.3766
rfoot -10.2879 -0.795318
rtoes -22.894
lfemur -29.9658 10.2874 -18.3715
ltibia 90.7018
lfoot -10.4609 -9.1545
ltoes -6.14963
159
root 3.05465 17.0697 -3.61456 -545.338 3.44245 -526.286
lowerback 15.6645 0.368483 7.6253
upperback 2.83692 2.289 1.19561
thorax -5.52296 1.19666 -3.51676
lowerneck -2.97239 9.33198 0.171585
upperneck -2.02243 12.072 -11.5513
head 0.661225 5.82953 -3.49831
rclavicle 2.68359e-014 3.18055e-014
rhumerus -51.5821 13.2535 -97.953
rradius 88.2705
rwrist 2.71002
rhand -26.4784 32.4984
rfingers 7.12502
rthumb 0.0836905 2.51871
lclavicle 2.68359e-014 3.18055e-014
lhumerus -76.8808 -4.14892 99.1548
lradius 103.033
lwrist 19.2344
lhand -4.93934 -11.0708
lfingers 7.12502
lthumb 20.8517 17.8287
rfemur 11.4153 5.76807 26.2845
rtibia 31.2568
rfoot -6.30893 -1.58193
rtoes -22.3637
lfemur -30.171 10.0428 -19.1179
ltibia 87.4543
lfoot -10.3137 -9.20496
ltoes -6.98413
160
root 3.06461 17.1924 -3.94757 -545.304 2.65236 -526.368
lowerback 15.1297 0.620668 7.23919
upperback 2.72168 2.47913 1.11047
thorax -5.34304 1.28696 -3.40809
lowerneck -3.24133 9.09816 0.0511238
upperneck -1.46014 11.8514 -10.9851
head 0.82466 5.70801 -3.26787
rclavicle -9.34288e-015 1.43125e-014
rhumerus -51.9556 14.3831 -98.9144
rradius 89.3352
rwrist 3.18469
rhand -26.5738 32.3744
rfingers 7.12502
rthumb -0.00849078 2.39468
lclavicle -9.34288e-015 1.43125e-014
lhumerus -77.4011 -4.63162 99.2121
lradius 103.424
lwrist 19.3676
lhand -4.74143 -11.4789
lfingers 7.12502
lthumb 21.0418 17.3995
rfemur 12.313 5.59667 26.3294
rtibia 30.3868
rfoot -2.32347 -2.36936
rtoes -21.7472
lfemur -30.2324 9.75281 -19.749
ltibia 84.0752
lfoot -10.1936 -9.19241
ltoes -7.45133
161
root 3.0722 17.3057 -4.28225 -545.215 1.84514 -526.431
lowerback 14.5681 0.850718 6.84027
upperback 2.56494 2.6394 1.03625
thorax -5.19774 1.35882 -3.27238
lowerneck -3.46036 8.88554 -0.10996
upperneck -0.913695 11.6518 -10.3771
head 0.971086 5.6011 -3.02197
rclavicle 1.74931e-014 2.06736e-014
rhumerus -52.537 15.5545 -99.9174
rradius 90.3733
rwrist 3.66207
rhand -26.7537 32.4113
rfingers 7.12502
rthumb -0.182191 2.43165
lclavicle 1.74931e-014 2.06736e-014
lhumerus -78.0367 -4.97572 99.2598
lradius 103.931
lwrist 19.3936
lhand -4.53416 -11.8047
lfingers 7.12502
lthumb 21.2409 17.0515
rfemur 13.0026 5.44305 26.3874
rtibia 29.8163
rfoot 1.53699 -3.08836
rtoes -21.3164
lfemur -30.2163 9.44972 -20.3309
ltibia 80.6043
lfoot -10.0471 -9.18024
ltoes -7.2697
162
root 3.07535 17.4093 -4.61852 -545.059 1.02203 -526.452
lowerback 13.937 1.05459 6.4916
upperback 2.38844 2.772 0.971684
thorax -5.03659 1.41593 -3.14522
lowerneck -3.61192 8.67698 -0.264725
upperneck -0.438467 11.4407 -9.83388
head 1.08895 5.49157 -2.80669
rclavicle 3.10104e-014 4.77083e-015
rhumerus -53.1811 16.7648 -100.873
rradius 91.5148
rwrist 3.93679
rhand -26.8011 32.4503
rfingers 7.12502
rthumb -0.228019 2.4707
lclavicle 3.10104e-014 4.77083e-015
lhumerus -78.5329 -5.29985 99.2483
lradius 104.354
lwrist 19.4206
lhand -4.23014 -11.9372
lfingers 7.12502
lthumb 21.5329 16.8858
rfemur 13.5327 5.24353 26.4426
rtibia 29.4817
rfoot 5.03363 -3.64642
rtoes -20.9587
lfemur -30.1639 9.10688 -20.862
ltibia 77.0755
lfoot -10.0852 -9.18761
ltoes -7.75583
163
root 3.0752 17.4989 -4.95207 -544.796 0.204264 -526.436
lowerback 13.2205 1.63673 6.30713
upperback 2.18245 2.80301 0.897205
thorax -4.83183 1.15462 -3.07371
lowerneck -3.79954 8.47401 -0.338602
upperneck 0.045529 11.233 -9.32657
head 1.22539 5.38298 -2.61713
rclavicle -1.98785e-015 -1.59028e-014
rhumerus -53.9153 17.9487 -101.767
rradius 92.7801
rwrist 3.99792
rhand -26.7407 32.5873
rfingers 7.12502
rthumb -0.169694 2.60762
lclavicle -1.98785e-015 -1.59028e-014
lhumerus -78.9691 -5.58954 99.1872
lradius 104.79
lwrist 19.443
lhand -3.98496 -11.9276
lfingers 7.12502
lthumb 21.7684 16.8683
rfemur 13.9461 5.0148 26.4922
rtibia 29.2728
rfoot 8.05576 -4.20527
rtoes -20.1957
lfemur -30.1692 8.79617 -21.3285
ltibia 73.5322
lfoot -10.3908 -9.41403
ltoes -9.30325
164
root 3.07159 17.5838 -5.28771 -544.465 -0.619492 -526.378
lowerback 12.4211 1.74189 6.03808
upperback 1.97081 2.89559 0.824636
thorax -4.61786 1.22674 -2.9877
lowerneck -3.91483 8.29398 -0.363387
upperneck 0.454679 11.0402 -8.90603
head 1.33658 5.28479 -2.46997
rclavicle 2.38542e-015 -2.54444e-014
rhumerus -54.7809 19.1522 -102.664
rradius 94.0343
rwrist 3.85945
rhand -26.6927 32.9475
rfingers 7.12502
rthumb -0.123272 2.96782
lclavicle 2.38542e-015 -2.54444e-014
lhumerus -79.3819 -5.83922 99.0794
lradius 105.32
lwrist 19.4724
lhand -3.70987 -11.7497
lfingers 7.12502
lthumb 22.0325 17.0152
rfemur 14.3451 4.70243 26.5372
rtibia 29.1288
rfoot 10.4802 -4.71588
rtoes -19.0087
lfemur -30.2092 8.48265 -21.7412
ltibia 69.9412
lfoot -10.8257 -9.5167
ltoes -11.3472
